<?xml version="1.0" encoding="UTF-8"?>
<!DOCTYPE svg PUBLIC "-//W3C//DTD SVG 1.1//EN" "http://www.w3.org/Graphics/SVG/1.1/DTD/svg11.dtd">
<svg xmlns="http://www.w3.org/2000/svg" version="1.1" width="512px" height="512px" style="shape-rendering:geometricPrecision; text-rendering:geometricPrecision; image-rendering:optimizeQuality; fill-rule:evenodd; clip-rule:evenodd" xmlns:xlink="http://www.w3.org/1999/xlink">
<g><path style="opacity:0.994" fill="#09b285" d="M 251.5,11.5 C 257.89,11.4308 263.89,12.9308 269.5,16C 283.42,31.2495 296.587,47.0828 309,63.5C 311.112,66.284 313.779,68.284 317,69.5C 335.767,64.0998 354.601,58.9331 373.5,54C 391.913,50.4421 403.413,57.6087 408,75.5C 409.566,96.4842 410.899,117.484 412,138.5C 413.731,140.617 415.898,142.117 418.5,143C 436.944,149.722 455.277,156.722 473.5,164C 488.208,174.534 491.041,187.701 482,203.5C 470.716,219.749 460.216,236.416 450.5,253.5C 450.577,255.299 451.077,256.966 452,258.5C 463.5,275.495 474.5,292.828 485,310.5C 489.983,326.222 485.483,338.389 471.5,347C 453.723,354.555 435.723,361.555 417.5,368C 415.714,368.785 414.214,369.951 413,371.5C 412.032,393.191 410.699,414.858 409,436.5C 405.429,449.731 396.763,456.731 383,457.5C 362.377,452.886 341.877,447.719 321.5,442C 319.5,441.333 317.5,441.333 315.5,442C 301.544,459.625 287.211,476.958 272.5,494C 260.712,501.705 249.379,501.039 238.5,492C 224.594,475.517 210.928,458.851 197.5,442C 195.5,441.333 193.5,441.333 191.5,442C 173.411,446.689 155.411,451.689 137.5,457C 119.281,459.648 107.781,452.148 103,434.5C 101.957,413.481 100.624,392.481 99,371.5C 98.1667,370.667 97.3333,369.833 96.5,369C 76.0548,361.277 55.7214,353.277 35.5,345C 23.4287,333.94 21.2621,321.107 29,306.5C 38.2738,291.562 47.9404,276.896 58,262.5C 60.7525,258.667 61.0858,254.667 59,250.5C 47.7509,233.67 36.7509,216.67 26,199.5C 21.0889,185.633 24.5889,174.466 36.5,166C 57.2169,157.887 77.7169,149.387 98,140.5C 99.5536,119.872 100.887,99.2052 102,78.5C 102.969,67.5497 108.469,60.0497 118.5,56C 124.765,54.5158 131.098,54.1824 137.5,55C 156.46,60.157 175.46,64.8236 194.5,69C 207.243,54.7056 219.41,39.8722 231,24.5C 236.474,17.8286 243.307,13.4953 251.5,11.5 Z M 326.5,179.5 C 338.605,177.799 347.105,182.466 352,193.5C 353.01,199.064 352.343,204.398 350,209.5C 310.833,248.667 271.667,287.833 232.5,327C 225.149,331.576 217.816,331.576 210.5,327C 192.667,310.5 175.5,293.333 159,275.5C 152.627,262.16 156.127,252.326 169.5,246C 176.468,244.538 182.801,245.871 188.5,250C 199.333,260.833 210.167,271.667 221,282.5C 254.167,249.333 287.333,216.167 320.5,183C 322.727,182.059 324.727,180.892 326.5,179.5 Z"/></g>
</svg>
