<?xml version="1.0" encoding="UTF-8"?>
<!DOCTYPE svg PUBLIC "-//W3C//DTD SVG 1.1//EN" "http://www.w3.org/Graphics/SVG/1.1/DTD/svg11.dtd">
<svg xmlns="http://www.w3.org/2000/svg" version="1.1" width="512px" height="512px" style="shape-rendering:geometricPrecision; text-rendering:geometricPrecision; image-rendering:optimizeQuality; fill-rule:evenodd; clip-rule:evenodd" xmlns:xlink="http://www.w3.org/1999/xlink">
<g><path style="opacity:0.999" fill="#f44336" d="M 55.5,63.5 C 122.105,112.147 188.772,160.814 255.5,209.5C 322.038,161.069 388.372,112.402 454.5,63.5C 484.37,63.5862 503.37,77.9195 511.5,106.5C 511.5,205.833 511.5,305.167 511.5,404.5C 505.681,427.152 491.348,441.319 468.5,447C 456.838,447.5 445.171,447.667 433.5,447.5C 430.861,445.691 428.694,443.358 427,440.5C 426.835,356.763 426.335,273.763 425.5,191.5C 370.323,230.503 314.99,269.336 259.5,308C 257.527,308.495 255.527,308.662 253.5,308.5C 250.06,306.945 246.727,305.112 243.5,303C 190.954,265.614 138.287,228.447 85.5,191.5C 84.667,274.332 84.167,357.332 84,440.5C 82.2332,443.772 79.7332,446.105 76.5,447.5C 65.1618,447.667 53.8284,447.5 42.5,447C 19.6524,441.319 5.31911,427.152 -0.5,404.5C -0.5,305.167 -0.5,205.833 -0.5,106.5C 7.35774,78.2242 26.0244,63.8909 55.5,63.5 Z"/></g>
<g><path style="opacity:1" fill="#eceef0" d="M 55.5,63.5 C 188.5,63.5 321.5,63.5 454.5,63.5C 388.372,112.402 322.038,161.069 255.5,209.5C 188.772,160.814 122.105,112.147 55.5,63.5 Z"/></g>
<g><path style="opacity:1" fill="#cfd7db" d="M 433.5,447.5 C 314.5,447.5 195.5,447.5 76.5,447.5C 79.7332,446.105 82.2332,443.772 84,440.5C 84.167,357.332 84.667,274.332 85.5,191.5C 85.1667,271.169 85.5,350.836 86.5,430.5C 142.687,390.578 199.021,350.911 255.5,311.5C 311.979,350.911 368.313,390.578 424.5,430.5C 425.5,350.836 425.833,271.169 425.5,191.5C 426.335,273.763 426.835,356.763 427,440.5C 428.694,443.358 430.861,445.691 433.5,447.5 Z"/></g>
<g><path style="opacity:1" fill="#ededed" d="M 425.5,191.5 C 425.833,271.169 425.5,350.836 424.5,430.5C 368.313,390.578 311.979,350.911 255.5,311.5C 254.449,310.778 253.782,309.778 253.5,308.5C 255.527,308.662 257.527,308.495 259.5,308C 314.99,269.336 370.323,230.503 425.5,191.5 Z"/></g>
<g><path style="opacity:1" fill="#f9f9f9" d="M 85.5,191.5 C 138.287,228.447 190.954,265.614 243.5,303C 246.727,305.112 250.06,306.945 253.5,308.5C 253.782,309.778 254.449,310.778 255.5,311.5C 199.021,350.911 142.687,390.578 86.5,430.5C 85.5,350.836 85.1667,271.169 85.5,191.5 Z"/></g>
</svg>
