<?xml version="1.0" encoding="UTF-8"?>
<!DOCTYPE svg PUBLIC "-//W3C//DTD SVG 1.1//EN" "http://www.w3.org/Graphics/SVG/1.1/DTD/svg11.dtd">
<svg xmlns="http://www.w3.org/2000/svg" version="1.1" width="512px" height="512px" style="shape-rendering:geometricPrecision; text-rendering:geometricPrecision; image-rendering:optimizeQuality; fill-rule:evenodd; clip-rule:evenodd" xmlns:xlink="http://www.w3.org/1999/xlink">
<g><path style="opacity:0.997" fill="#2196f3" d="M 287.5,111.5 C 287.5,122.167 287.5,132.833 287.5,143.5C 287.5,155.5 287.5,167.5 287.5,179.5C 287.5,192.5 287.5,205.5 287.5,218.5C 287.5,268.167 287.5,317.833 287.5,367.5C 287.5,378.167 287.5,388.833 287.5,399.5C 287.667,428.169 287.5,456.835 287,485.5C 282.243,494.788 274.743,497.954 264.5,495C 180.833,479.333 97.1667,463.667 13.5,448C 7.11828,446.657 2.45162,443.157 -0.5,437.5C -0.5,316.167 -0.5,194.833 -0.5,73.5C 2.45162,67.8434 7.11828,64.3434 13.5,63C 97.1667,47.3333 180.833,31.6667 264.5,16C 274.743,13.0457 282.243,16.2124 287,25.5C 287.5,54.1647 287.667,82.8314 287.5,111.5 Z"/></g>
<g><path style="opacity:0.99" fill="#1975d2" d="M 287.5,111.5 C 358.834,111.333 430.167,111.5 501.5,112C 506.02,114.022 509.353,117.189 511.5,121.5C 511.5,210.833 511.5,300.167 511.5,389.5C 509.353,393.811 506.02,396.978 501.5,399C 430.167,399.5 358.834,399.667 287.5,399.5C 287.5,388.833 287.5,378.167 287.5,367.5C 351.5,367.5 415.5,367.5 479.5,367.5C 479.667,298.833 479.5,230.166 479,161.5C 438.771,193.03 398.271,224.197 357.5,255C 351.903,256.091 346.57,255.424 341.5,253C 323.641,241.24 305.641,229.74 287.5,218.5C 287.5,205.5 287.5,192.5 287.5,179.5C 308.343,192.755 329.343,205.755 350.5,218.5C 382.95,193.891 415.284,169.058 447.5,144C 394.168,143.5 340.834,143.333 287.5,143.5C 287.5,132.833 287.5,122.167 287.5,111.5 Z"/></g>
<g><path style="opacity:1" fill="#f8f9f9" d="M 133.5,175.5 C 174.781,175.256 202.615,194.59 217,233.5C 229.091,271.197 223.758,306.197 201,338.5C 170.316,372.336 136.149,376.503 98.5,351C 72.2211,325.846 60.7211,295.012 64,258.5C 68.1432,224.403 84.9765,198.903 114.5,182C 120.789,179.354 127.122,177.188 133.5,175.5 Z"/></g>
<g><path style="opacity:1" fill="#2396f3" d="M 136.5,207.5 C 153.092,206.546 166.592,212.546 177,225.5C 196.243,256.116 196.243,286.782 177,317.5C 154.624,341.395 132.291,341.395 110,317.5C 92.3221,289.598 90.9888,260.931 106,231.5C 113.175,219.47 123.342,211.47 136.5,207.5 Z"/></g>
</svg>
