<?xml version="1.0" encoding="UTF-8"?>
<!DOCTYPE svg PUBLIC "-//W3C//DTD SVG 1.1//EN" "http://www.w3.org/Graphics/SVG/1.1/DTD/svg11.dtd">
<svg xmlns="http://www.w3.org/2000/svg" version="1.1" width="512px" height="512px" style="shape-rendering:geometricPrecision; text-rendering:geometricPrecision; image-rendering:optimizeQuality; fill-rule:evenodd; clip-rule:evenodd" xmlns:xlink="http://www.w3.org/1999/xlink">
<g><path style="opacity:0.942" fill="#000000" d="M 166.5,7.5 C 225.834,7.33334 285.168,7.50001 344.5,8C 356.415,11.5817 363.915,19.415 367,31.5C 367.5,52.4974 367.667,73.4974 367.5,94.5C 373.842,94.3338 380.175,94.5005 386.5,95C 391.333,97.1667 394.833,100.667 397,105.5C 398.147,129.119 398.647,152.785 398.5,176.5C 398.333,198.833 398.167,221.167 398,243.5C 396.679,251.989 391.846,257.156 383.5,259C 378.177,259.499 372.844,259.666 367.5,259.5C 367.667,280.169 367.5,300.836 367,321.5C 363.424,334.741 354.924,342.908 341.5,346C 335.175,346.5 328.842,346.666 322.5,346.5C 320.978,360.356 313.312,368.356 299.5,370.5C 299.5,385.5 299.5,400.5 299.5,415.5C 334.293,412.02 359.626,425.687 375.5,456.5C 380.544,457.475 385.544,458.642 390.5,460C 395.149,462.455 397.983,466.288 399,471.5C 399.901,479.579 399.568,487.579 398,495.5C 395.359,500.144 391.525,503.311 386.5,505C 299.167,505.667 211.833,505.667 124.5,505C 119.475,503.311 115.641,500.144 113,495.5C 111.432,487.579 111.099,479.579 112,471.5C 113.017,466.288 115.851,462.455 120.5,460C 125.456,458.642 130.456,457.475 135.5,456.5C 151.374,425.687 176.707,412.02 211.5,415.5C 211.833,400.485 211.499,385.485 210.5,370.5C 197.664,367.466 190.331,359.466 188.5,346.5C 171.185,349.681 157.352,344.347 147,330.5C 145.803,327.911 144.803,325.244 144,322.5C 143.5,301.503 143.333,280.503 143.5,259.5C 134.605,260.6 126.272,259.1 118.5,255C 115.333,251.845 113.499,248.012 113,243.5C 112.833,221.167 112.667,198.833 112.5,176.5C 112.353,152.785 112.853,129.119 114,105.5C 116.167,100.667 119.667,97.1667 124.5,95C 130.825,94.5005 137.158,94.3338 143.5,94.5C 143.043,72.1137 143.543,49.7804 145,27.5C 149.196,17.4646 156.363,10.798 166.5,7.5 Z M 169.5,22.5 C 226.834,22.3333 284.168,22.5 341.5,23C 345.612,24.7786 348.778,27.6119 351,31.5C 352.377,38.0764 352.877,44.7431 352.5,51.5C 287.833,51.5 223.167,51.5 158.5,51.5C 158.123,44.7431 158.623,38.0764 160,31.5C 162.406,27.5915 165.572,24.5915 169.5,22.5 Z M 158.5,66.5 C 223.167,66.5 287.833,66.5 352.5,66.5C 352.5,140.167 352.5,213.833 352.5,287.5C 342.5,287.5 332.5,287.5 322.5,287.5C 324.998,270.894 317.998,264.561 301.5,268.5C 285.002,264.561 278.002,270.894 280.5,287.5C 263.5,287.5 246.5,287.5 229.5,287.5C 232.459,270.465 225.459,264.132 208.5,268.5C 192.255,264.748 185.255,271.082 187.5,287.5C 177.833,287.5 168.167,287.5 158.5,287.5C 158.5,213.833 158.5,140.167 158.5,66.5 Z M 131.5,112.5 C 135.5,112.5 139.5,112.5 143.5,112.5C 143.5,155.167 143.5,197.833 143.5,240.5C 139.5,240.5 135.5,240.5 131.5,240.5C 131.5,197.833 131.5,155.167 131.5,112.5 Z M 367.5,112.5 C 371.5,112.5 375.5,112.5 379.5,112.5C 379.5,155.167 379.5,197.833 379.5,240.5C 375.5,240.5 371.5,240.5 367.5,240.5C 367.5,197.833 367.5,155.167 367.5,112.5 Z M 206.5,286.5 C 208.167,286.5 209.833,286.5 211.5,286.5C 211.333,304.836 211.5,323.17 212,341.5C 213.543,343.378 215.376,344.878 217.5,346C 242.5,346.667 267.5,346.667 292.5,346C 295.973,345.193 298.14,343.027 299,339.5C 299.5,321.836 299.667,304.17 299.5,286.5C 301.167,286.5 302.833,286.5 304.5,286.5C 304.977,307.259 304.477,327.925 303,348.5C 301.681,350.487 299.848,351.654 297.5,352C 269.5,352.667 241.5,352.667 213.5,352C 211.152,351.654 209.319,350.487 208,348.5C 206.523,327.925 206.023,307.259 206.5,286.5 Z M 158.5,302.5 C 168.5,302.5 178.5,302.5 188.5,302.5C 188.5,312.167 188.5,321.833 188.5,331.5C 165.313,335.311 155.313,325.645 158.5,302.5 Z M 229.5,302.5 C 246.5,302.5 263.5,302.5 280.5,302.5C 280.5,311.167 280.5,319.833 280.5,328.5C 263.5,328.5 246.5,328.5 229.5,328.5C 229.5,319.833 229.5,311.167 229.5,302.5 Z M 322.5,302.5 C 332.5,302.5 342.5,302.5 352.5,302.5C 355.658,325.608 345.658,335.275 322.5,331.5C 322.5,321.833 322.5,312.167 322.5,302.5 Z M 229.5,370.5 C 246.833,370.5 264.167,370.5 281.5,370.5C 281.5,385.5 281.5,400.5 281.5,415.5C 264.167,415.5 246.833,415.5 229.5,415.5C 229.5,400.5 229.5,385.5 229.5,370.5 Z M 191.5,433.5 C 234.168,433.333 276.835,433.5 319.5,434C 334.298,436.899 345.965,444.566 354.5,457C 288.5,457.667 222.5,457.667 156.5,457C 165.252,444.638 176.919,436.804 191.5,433.5 Z M 129.5,476.5 C 213.5,476.5 297.5,476.5 381.5,476.5C 381.5,480.167 381.5,483.833 381.5,487.5C 297.5,487.5 213.5,487.5 129.5,487.5C 129.5,483.833 129.5,480.167 129.5,476.5 Z"/></g>
<g><path style="opacity:0.903" fill="#000000" d="M 218.5,25.5 C 230.675,24.4992 235.509,29.8325 233,41.5C 226.333,49.5 219.667,49.5 213,41.5C 210.752,34.742 212.586,29.4087 218.5,25.5 Z"/></g>
<g><path style="opacity:0.926" fill="#000000" d="M 241.5,27.5 C 261.503,27.3334 281.503,27.5 301.5,28C 308.901,32.9256 309.235,38.2589 302.5,44C 281.833,44.6667 261.167,44.6667 240.5,44C 233.829,38.1522 234.162,32.6522 241.5,27.5 Z"/></g>
</svg>
