<?xml version="1.0" encoding="UTF-8"?>
<!DOCTYPE svg PUBLIC "-//W3C//DTD SVG 1.1//EN" "http://www.w3.org/Graphics/SVG/1.1/DTD/svg11.dtd">
<svg xmlns="http://www.w3.org/2000/svg" version="1.1" width="512px" height="512px" style="shape-rendering:geometricPrecision; text-rendering:geometricPrecision; image-rendering:optimizeQuality; fill-rule:evenodd; clip-rule:evenodd" xmlns:xlink="http://www.w3.org/1999/xlink">
<g><path style="opacity:0.966" fill="#000000" d="M 511.5,146.5 C 511.5,234.167 511.5,321.833 511.5,409.5C 505.971,433.532 491.304,449.032 467.5,456C 396.863,457.157 326.197,457.657 255.5,457.5C 186.833,457.333 118.167,457.167 49.5,457C 22.954,451.949 6.28732,436.449 -0.5,410.5C -0.5,322.5 -0.5,234.5 -0.5,146.5C 6.10973,121.391 22.1097,105.891 47.5,100C 77.1648,99.5 106.831,99.3334 136.5,99.5C 137.465,79.7181 146.798,65.5514 164.5,57C 168.661,55.2625 172.995,54.2625 177.5,54C 229.5,53.3333 281.5,53.3333 333.5,54C 358.715,58.7151 372.048,73.8817 373.5,99.5C 403.502,99.3334 433.502,99.5 463.5,100C 488.903,105.904 504.903,121.404 511.5,146.5 Z M 181.5,79.5 C 231.168,79.3333 280.834,79.5 330.5,80C 340.928,81.7615 346.428,87.9281 347,98.5C 347.333,104.833 347.667,111.167 348,117.5C 349.5,121 352,123.5 355.5,125C 390.786,126.307 426.12,126.974 461.5,127C 474,130.167 481.833,138 485,150.5C 485.667,234.167 485.667,317.833 485,401.5C 483.273,416.559 475.107,426.059 460.5,430C 323.833,430.667 187.167,430.667 50.5,430C 35.8934,426.059 27.7268,416.559 26,401.5C 25.3333,319.5 25.3333,237.5 26,155.5C 27.5892,140.906 35.4225,131.406 49.5,127C 85.2055,126.967 120.872,126.301 156.5,125C 160.058,123.108 162.558,120.275 164,116.5C 164.123,107.773 164.79,99.1061 166,90.5C 169.417,84.2337 174.583,80.567 181.5,79.5 Z M 253.5,185.5 C 295.077,187.352 324.577,207.019 342,244.5C 355.805,285.449 346.971,320.616 315.5,350C 281.772,375.187 246.105,378.187 208.5,359C 172.008,335.17 157.508,301.67 165,258.5C 177.791,213.873 207.291,189.54 253.5,185.5 Z"/></g>
<g><path style="opacity:0.952" fill="#000000" d="M 425.5,157.5 C 442.168,157.337 451.501,165.503 453.5,182C 450.287,200.777 439.287,208.444 420.5,205C 404.383,196.314 400.55,183.814 409,167.5C 413.443,162.205 418.943,158.871 425.5,157.5 Z"/></g>
<g><path style="opacity:0.957" fill="#000000" d="M 241.5,158.5 C 293.045,155.354 332.545,175.354 360,218.5C 380.667,258.5 380.667,298.5 360,338.5C 333.135,381.185 294.301,401.018 243.5,398C 192.708,391.036 158.541,363.536 141,315.5C 126.961,263.297 140.128,219.464 180.5,184C 198.728,170.317 219.061,161.817 241.5,158.5 Z M 253.5,185.5 C 207.291,189.54 177.791,213.873 165,258.5C 157.508,301.67 172.008,335.17 208.5,359C 246.105,378.187 281.772,375.187 315.5,350C 346.971,320.616 355.805,285.449 342,244.5C 324.577,207.019 295.077,187.352 253.5,185.5 Z"/></g>
</svg>
