<?xml version="1.0" encoding="UTF-8"?>
<!DOCTYPE svg PUBLIC "-//W3C//DTD SVG 1.1//EN" "http://www.w3.org/Graphics/SVG/1.1/DTD/svg11.dtd">
<svg xmlns="http://www.w3.org/2000/svg" version="1.1" width="512px" height="512px" style="shape-rendering:geometricPrecision; text-rendering:geometricPrecision; image-rendering:optimizeQuality; fill-rule:evenodd; clip-rule:evenodd" xmlns:xlink="http://www.w3.org/1999/xlink">
<g><path style="opacity:0.962" fill="#000000" d="M 231.5,-0.5 C 246.833,-0.5 262.167,-0.5 277.5,-0.5C 364.63,10.2984 431.13,52.965 477,127.5C 504.433,175.666 515.1,227.333 509,282.5C 506.27,305.127 496.77,324.293 480.5,340C 453.152,359.08 424.818,360.413 395.5,344C 388.468,339.147 381.802,333.814 375.5,328C 350.821,316.669 332.654,323.169 321,347.5C 318.158,358.067 319.491,368.067 325,377.5C 353.844,406.38 359.177,439.046 341,475.5C 331.08,489.557 317.913,499.391 301.5,505C 292.181,507.832 282.847,509.999 273.5,511.5C 259.833,511.5 246.167,511.5 232.5,511.5C 151.795,502.413 88.2948,464.747 42,398.5C 18.1794,361.869 4.01272,321.869 -0.5,278.5C -0.5,263.167 -0.5,247.833 -0.5,232.5C 11.9281,134.769 62.2614,64.2685 150.5,21C 176.496,9.60484 203.496,2.43817 231.5,-0.5 Z M 253.5,29.5 C 339.355,33.1547 404.855,71.1547 450,143.5C 474.19,185.785 483.524,231.119 478,279.5C 476.241,291.79 471.574,302.79 464,312.5C 446.317,327.611 427.817,328.444 408.5,315C 387.28,293.027 361.946,286.361 332.5,295C 301.001,308.813 286.501,332.98 289,367.5C 291.689,384.548 299.356,398.881 312,410.5C 322.49,426.482 323.157,442.815 314,459.5C 304.199,470.319 292.032,476.819 277.5,479C 201.399,485.634 137.566,460.801 86,404.5C 29.8536,335.636 16.1869,258.969 45,174.5C 68.8165,116.349 109.316,74.1828 166.5,48C 194.479,36.3725 223.479,30.2058 253.5,29.5 Z M 219.5,91.5 C 233.652,90.1515 239.819,96.4848 238,110.5C 232.135,120.246 224.301,122.08 214.5,116C 207.906,106.014 209.573,97.8478 219.5,91.5 Z M 129.5,181.5 C 143.652,180.151 149.819,186.485 148,200.5C 142.135,210.246 134.301,212.08 124.5,206C 117.906,196.014 119.573,187.848 129.5,181.5 Z M 400.5,211.5 C 414.652,210.151 420.819,216.485 419,230.5C 413.135,240.246 405.301,242.08 395.5,236C 388.906,226.014 390.573,217.848 400.5,211.5 Z M 129.5,301.5 C 143.652,300.151 149.819,306.485 148,320.5C 142.135,330.246 134.301,332.08 124.5,326C 117.906,316.014 119.573,307.848 129.5,301.5 Z M 219.5,391.5 C 233.652,390.151 239.819,396.485 238,410.5C 232.135,420.246 224.301,422.08 214.5,416C 207.906,406.014 209.573,397.848 219.5,391.5 Z"/></g>
<g><path style="opacity:0.962" fill="#000000" d="M 214.5,60.5 C 237.793,57.3955 254.959,66.0622 266,86.5C 274.029,107.545 269.862,125.712 253.5,141C 236.989,152.094 219.656,153.427 201.5,145C 178.914,128.83 173.414,107.997 185,82.5C 192.172,71.4814 202.005,64.1481 214.5,60.5 Z M 219.5,91.5 C 209.573,97.8478 207.906,106.014 214.5,116C 224.301,122.08 232.135,120.246 238,110.5C 239.819,96.4848 233.652,90.1515 219.5,91.5 Z"/></g>
<g><path style="opacity:0.962" fill="#000000" d="M 124.5,150.5 C 147.793,147.396 164.959,156.062 176,176.5C 184.029,197.545 179.862,215.712 163.5,231C 146.989,242.094 129.656,243.427 111.5,235C 88.9143,218.83 83.4143,197.997 95,172.5C 102.172,161.481 112.005,154.148 124.5,150.5 Z M 129.5,181.5 C 119.573,187.848 117.906,196.014 124.5,206C 134.301,212.08 142.135,210.246 148,200.5C 149.819,186.485 143.652,180.151 129.5,181.5 Z"/></g>
<g><path style="opacity:0.962" fill="#000000" d="M 395.5,180.5 C 418.793,177.396 435.959,186.062 447,206.5C 455.029,227.545 450.862,245.712 434.5,261C 417.989,272.094 400.656,273.427 382.5,265C 359.914,248.83 354.414,227.997 366,202.5C 373.172,191.481 383.005,184.148 395.5,180.5 Z M 400.5,211.5 C 390.573,217.848 388.906,226.014 395.5,236C 405.301,242.08 413.135,240.246 419,230.5C 420.819,216.485 414.652,210.151 400.5,211.5 Z"/></g>
<g><path style="opacity:0.962" fill="#000000" d="M 124.5,270.5 C 147.793,267.396 164.959,276.062 176,296.5C 184.029,317.545 179.862,335.712 163.5,351C 146.989,362.094 129.656,363.427 111.5,355C 88.9143,338.83 83.4143,317.997 95,292.5C 102.172,281.481 112.005,274.148 124.5,270.5 Z M 129.5,301.5 C 119.573,307.848 117.906,316.014 124.5,326C 134.301,332.08 142.135,330.246 148,320.5C 149.819,306.485 143.652,300.151 129.5,301.5 Z"/></g>
<g><path style="opacity:0.962" fill="#000000" d="M 214.5,360.5 C 237.793,357.396 254.959,366.062 266,386.5C 274.029,407.545 269.862,425.712 253.5,441C 236.989,452.094 219.656,453.427 201.5,445C 178.914,428.83 173.414,407.997 185,382.5C 192.172,371.481 202.005,364.148 214.5,360.5 Z M 219.5,391.5 C 209.573,397.848 207.906,406.014 214.5,416C 224.301,422.08 232.135,420.246 238,410.5C 239.819,396.485 233.652,390.151 219.5,391.5 Z"/></g>
</svg>
