<?xml version="1.0" encoding="UTF-8"?>
<!DOCTYPE svg PUBLIC "-//W3C//DTD SVG 1.1//EN" "http://www.w3.org/Graphics/SVG/1.1/DTD/svg11.dtd">
<svg xmlns="http://www.w3.org/2000/svg" version="1.1" width="512px" height="512px" style="shape-rendering:geometricPrecision; text-rendering:geometricPrecision; image-rendering:optimizeQuality; fill-rule:evenodd; clip-rule:evenodd" xmlns:xlink="http://www.w3.org/1999/xlink">
<g><path style="opacity:0.968" fill="#000000" d="M 511.5,368.5 C 511.5,376.5 511.5,384.5 511.5,392.5C 506.46,411.037 494.46,422.204 475.5,426C 328.833,426.667 182.167,426.667 35.5,426C 16.54,422.204 4.53999,411.037 -0.5,392.5C -0.5,384.5 -0.5,376.5 -0.5,368.5C 1.50567,364.999 4.50567,362.833 8.5,362C 19.495,361.5 30.495,361.333 41.5,361.5C 41.3333,282.166 41.5,202.833 42,123.5C 45.14,102.692 56.9733,89.8586 77.5,85C 196.167,84.3333 314.833,84.3333 433.5,85C 454.027,89.8586 465.86,102.692 469,123.5C 469.5,202.833 469.667,282.166 469.5,361.5C 481.895,361.082 494.228,361.582 506.5,363C 508.402,364.73 510.069,366.563 511.5,368.5 Z M 81.5,106.5 C 197.5,106.333 313.5,106.5 429.5,107C 439.991,109.826 445.824,116.659 447,127.5C 447.5,205.499 447.667,283.499 447.5,361.5C 319.5,361.5 191.5,361.5 63.5,361.5C 63.3333,283.499 63.5,205.499 64,127.5C 65.3686,116.642 71.202,109.642 81.5,106.5 Z M 21.5,383.5 C 80.1676,383.333 138.834,383.5 197.5,384C 200.916,388.087 204.916,391.42 209.5,394C 240.167,394.667 270.833,394.667 301.5,394C 306.084,391.42 310.084,388.087 313.5,384C 372.166,383.5 430.832,383.333 489.5,383.5C 488.682,394.821 482.682,401.654 471.5,404C 327.5,404.667 183.5,404.667 39.5,404C 28.3176,401.654 22.3176,394.821 21.5,383.5 Z"/></g>
</svg>
