<?xml version="1.0" encoding="UTF-8"?>
<!DOCTYPE svg PUBLIC "-//W3C//DTD SVG 1.1//EN" "http://www.w3.org/Graphics/SVG/1.1/DTD/svg11.dtd">
<svg xmlns="http://www.w3.org/2000/svg" version="1.1" width="512px" height="512px" style="shape-rendering:geometricPrecision; text-rendering:geometricPrecision; image-rendering:optimizeQuality; fill-rule:evenodd; clip-rule:evenodd" xmlns:xlink="http://www.w3.org/1999/xlink">
<g><path style="opacity:0.959" fill="#000000" d="M 94.5,-0.5 C 201.833,-0.5 309.167,-0.5 416.5,-0.5C 436.573,5.41235 448.407,18.7457 452,39.5C 452.667,183.5 452.667,327.5 452,471.5C 448.407,492.254 436.573,505.588 416.5,511.5C 309.167,511.5 201.833,511.5 94.5,511.5C 74.4266,505.588 62.5933,492.254 59,471.5C 58.3333,327.5 58.3333,183.5 59,39.5C 62.5933,18.7457 74.4266,5.41235 94.5,-0.5 Z M 98.5,18.5 C 203.167,18.3333 307.834,18.5 412.5,19C 423.993,22.8231 430.827,30.6565 433,42.5C 433.667,184.5 433.667,326.5 433,468.5C 430.827,480.344 423.993,488.177 412.5,492C 307.833,492.667 203.167,492.667 98.5,492C 87.0068,488.177 80.1735,480.344 78,468.5C 77.3333,326.5 77.3333,184.5 78,42.5C 80.3661,30.6373 87.1994,22.6373 98.5,18.5 Z M 254.5,438.5 C 266.301,440.458 270.468,447.124 267,458.5C 259.333,467.833 251.667,467.833 244,458.5C 240.432,448.002 243.932,441.336 254.5,438.5 Z"/></g>
<g><path style="opacity:0.943" fill="#000000" d="M 241.5,35.5 C 250.833,35.5 260.167,35.5 269.5,35.5C 269.5,41.8333 269.5,48.1667 269.5,54.5C 260.167,54.5 250.833,54.5 241.5,54.5C 241.5,48.1667 241.5,41.8333 241.5,35.5 Z"/></g>
<g><path style="opacity:0.938" fill="#000000" d="M 250.5,419.5 C 276.838,420.002 289.005,433.335 287,459.5C 281.124,477.696 268.624,485.863 249.5,484C 229.749,478.225 221.249,465.059 224,444.5C 227.857,430.807 236.691,422.474 250.5,419.5 Z M 254.5,438.5 C 243.932,441.336 240.432,448.002 244,458.5C 251.667,467.833 259.333,467.833 267,458.5C 270.468,447.124 266.301,440.458 254.5,438.5 Z"/></g>
</svg>
