<?xml version="1.0" encoding="UTF-8"?>
<!DOCTYPE svg PUBLIC "-//W3C//DTD SVG 1.1//EN" "http://www.w3.org/Graphics/SVG/1.1/DTD/svg11.dtd">
<svg xmlns="http://www.w3.org/2000/svg" version="1.1" width="512px" height="512px" style="shape-rendering:geometricPrecision; text-rendering:geometricPrecision; image-rendering:optimizeQuality; fill-rule:evenodd; clip-rule:evenodd" xmlns:xlink="http://www.w3.org/1999/xlink">
<g><path style="opacity:0.934" fill="#000000" d="M 21.5,47.5 C 178.247,47.0029 334.914,47.5029 491.5,49C 492.126,49.7504 492.626,50.5838 493,51.5C 493.667,158.833 493.667,266.167 493,373.5C 491.786,375.049 490.286,376.215 488.5,377C 475.171,377.5 461.837,377.667 448.5,377.5C 448.973,403.564 448.473,429.564 447,455.5C 444.913,459.302 441.746,461.802 437.5,463C 412.5,463.667 387.5,463.667 362.5,463C 357,461.5 353.5,458 352,452.5C 351.5,427.502 351.333,402.502 351.5,377.5C 332.5,377.5 313.5,377.5 294.5,377.5C 294.5,389.167 294.5,400.833 294.5,412.5C 305.505,412.333 316.505,412.5 327.5,413C 330.683,414.018 332.016,416.185 331.5,419.5C 331.953,423.431 330.286,425.931 326.5,427C 279.167,427.667 231.833,427.667 184.5,427C 179.774,424.612 178.274,420.778 180,415.5C 180.903,414.299 182.069,413.465 183.5,413C 194.495,412.5 205.495,412.333 216.5,412.5C 216.5,400.833 216.5,389.167 216.5,377.5C 151.832,377.667 87.1658,377.5 22.5,377C 20.714,376.215 19.214,375.049 18,373.5C 17.3333,266.167 17.3333,158.833 18,51.5C 18.6897,49.6498 19.8564,48.3164 21.5,47.5 Z M 32.5,62.5 C 181.167,62.5 329.833,62.5 478.5,62.5C 478.5,149.833 478.5,237.167 478.5,324.5C 468.5,324.5 458.5,324.5 448.5,324.5C 448.667,312.162 448.5,299.829 448,287.5C 446.5,282 443,278.5 437.5,277C 412.5,276.333 387.5,276.333 362.5,277C 357,278.5 353.5,282 352,287.5C 351.5,299.829 351.333,312.162 351.5,324.5C 245.167,324.5 138.833,324.5 32.5,324.5C 32.5,237.167 32.5,149.833 32.5,62.5 Z M 366.5,291.5 C 388.833,291.5 411.167,291.5 433.5,291.5C 433.5,343.833 433.5,396.167 433.5,448.5C 411.167,448.5 388.833,448.5 366.5,448.5C 366.5,396.167 366.5,343.833 366.5,291.5 Z M 32.5,339.5 C 138.833,339.5 245.167,339.5 351.5,339.5C 351.5,347.167 351.5,354.833 351.5,362.5C 245.167,362.5 138.833,362.5 32.5,362.5C 32.5,354.833 32.5,347.167 32.5,339.5 Z M 448.5,339.5 C 458.5,339.5 468.5,339.5 478.5,339.5C 478.5,347.167 478.5,354.833 478.5,362.5C 468.5,362.5 458.5,362.5 448.5,362.5C 448.5,354.833 448.5,347.167 448.5,339.5 Z M 231.5,377.5 C 247.5,377.5 263.5,377.5 279.5,377.5C 279.5,389.167 279.5,400.833 279.5,412.5C 263.5,412.5 247.5,412.5 231.5,412.5C 231.5,400.833 231.5,389.167 231.5,377.5 Z M 397.5,391.5 C 408.686,392.549 412.186,398.215 408,408.5C 403.567,413.055 398.734,413.555 393.5,410C 387.507,402.163 388.84,395.996 397.5,391.5 Z"/></g>
<g><path style="opacity:0.871" fill="#000000" d="M 379.5,312.5 C 383.967,312.133 388.3,312.633 392.5,314C 396.875,319.121 396.209,323.455 390.5,327C 386.044,327.867 381.711,327.534 377.5,326C 373.188,320.731 373.855,316.231 379.5,312.5 Z"/></g>
<g><path style="opacity:0.871" fill="#000000" d="M 409.5,312.5 C 413.967,312.133 418.3,312.633 422.5,314C 426.875,319.121 426.209,323.455 420.5,327C 416.044,327.867 411.711,327.534 407.5,326C 403.188,320.731 403.855,316.231 409.5,312.5 Z"/></g>
<g><path style="opacity:0.871" fill="#000000" d="M 379.5,344.5 C 383.967,344.133 388.3,344.633 392.5,346C 396.875,351.121 396.209,355.455 390.5,359C 386.044,359.867 381.711,359.534 377.5,358C 373.188,352.731 373.855,348.231 379.5,344.5 Z"/></g>
<g><path style="opacity:0.871" fill="#000000" d="M 409.5,344.5 C 413.967,344.133 418.3,344.633 422.5,346C 426.875,351.121 426.209,355.455 420.5,359C 416.044,359.867 411.711,359.534 407.5,358C 403.188,352.731 403.855,348.231 409.5,344.5 Z"/></g>
<g><path style="opacity:0.92" fill="#000000" d="M 395.5,376.5 C 417.908,376.974 427.408,388.307 424,410.5C 415.25,427.185 402.417,431.351 385.5,423C 373.965,413.611 371.465,402.111 378,388.5C 382.39,382.258 388.223,378.258 395.5,376.5 Z M 397.5,391.5 C 388.84,395.996 387.507,402.163 393.5,410C 398.734,413.555 403.567,413.055 408,408.5C 412.186,398.215 408.686,392.549 397.5,391.5 Z"/></g>
</svg>
