<?xml version="1.0" encoding="UTF-8"?>
<!DOCTYPE svg PUBLIC "-//W3C//DTD SVG 1.1//EN" "http://www.w3.org/Graphics/SVG/1.1/DTD/svg11.dtd">
<svg xmlns="http://www.w3.org/2000/svg" version="1.1" width="512px" height="512px" style="shape-rendering:geometricPrecision; text-rendering:geometricPrecision; image-rendering:optimizeQuality; fill-rule:evenodd; clip-rule:evenodd" xmlns:xlink="http://www.w3.org/1999/xlink">
<g><path style="opacity:0.946" fill="#000000" d="M 193.5,15.5 C 229.168,15.3333 264.835,15.5 300.5,16C 315.32,20.4857 324.154,30.319 327,45.5C 329.406,65.4914 331.74,85.4914 334,105.5C 341.596,108.882 349.096,112.716 356.5,117C 371.782,129.408 379.115,145.574 378.5,165.5C 388.092,168.26 393.592,174.593 395,184.5C 395.667,197.167 395.667,209.833 395,222.5C 393.299,232.534 387.632,239.201 378,242.5C 377.5,253.495 377.333,264.495 377.5,275.5C 388.422,273.375 395.922,277.375 400,287.5C 400.667,305.167 400.667,322.833 400,340.5C 395.922,350.625 388.422,354.625 377.5,352.5C 375.555,378.907 361.889,395.74 336.5,403C 335.333,403.5 334.5,404.333 334,405.5C 331.698,427.216 329.032,448.883 326,470.5C 321.755,483.078 313.255,491.245 300.5,495C 264.833,495.667 229.167,495.667 193.5,495C 178.923,491.422 170.09,482.256 167,467.5C 164.785,446.055 161.951,424.722 158.5,403.5C 136.537,398.037 122.704,384.371 117,362.5C 115.36,293.857 115.027,225.191 116,156.5C 118.905,130.427 133.071,114.094 158.5,107.5C 161.818,83.8096 165.318,60.1429 169,36.5C 173.783,25.3846 181.95,18.3846 193.5,15.5 Z M 201.5,31.5 C 231.835,31.3334 262.168,31.5 292.5,32C 302.098,32.9315 307.931,38.0982 310,47.5C 312.579,67.1289 314.745,86.7955 316.5,106.5C 269.829,106.833 223.162,106.5 176.5,105.5C 179.087,84.4684 181.921,63.4684 185,42.5C 188.699,35.915 194.199,32.2483 201.5,31.5 Z M 164.5,123.5 C 219.168,123.333 273.834,123.5 328.5,124C 352.402,129.293 362.902,144.126 360,168.5C 355.477,171.704 352.477,176.038 351,181.5C 350.333,196.5 350.333,211.5 351,226.5C 352.41,231.914 355.41,236.247 360,239.5C 360.667,279.167 360.667,318.833 360,358.5C 355.646,374.187 345.479,383.687 329.5,387C 274.5,387.667 219.5,387.667 164.5,387C 145.956,383.419 135.456,372.253 133,353.5C 132.333,288.167 132.333,222.833 133,157.5C 135.557,138.667 146.057,127.334 164.5,123.5 Z M 371.5,181.5 C 374.675,181.84 376.841,183.507 378,186.5C 378.667,197.833 378.667,209.167 378,220.5C 377.641,223.525 375.975,225.192 373,225.5C 370.695,225.516 369.028,224.516 368,222.5C 367.333,209.833 367.333,197.167 368,184.5C 369.145,183.364 370.312,182.364 371.5,181.5 Z M 377.5,292.5 C 379.5,292.5 381.5,292.5 383.5,292.5C 383.5,307.167 383.5,321.833 383.5,336.5C 381.5,336.5 379.5,336.5 377.5,336.5C 377.5,321.833 377.5,307.167 377.5,292.5 Z M 176.5,404.5 C 223.167,404.5 269.833,404.5 316.5,404.5C 314.664,424.195 312.497,443.862 310,463.5C 307.931,472.902 302.098,478.068 292.5,479C 262.167,479.667 231.833,479.667 201.5,479C 192.788,478.294 186.955,473.794 184,465.5C 181.579,445.133 179.079,424.8 176.5,404.5 Z"/></g>
</svg>
